<?xml version="1.0" standalone="no"?>
<!DOCTYPE svg PUBLIC "-//W3C//DTD SVG 20010904//EN"
 "http://www.w3.org/TR/2001/REC-SVG-20010904/DTD/svg10.dtd">
<svg version="1.0" xmlns="http://www.w3.org/2000/svg"
 width="1024.000000pt" height="1024.000000pt" viewBox="0 0 1024.000000 1024.000000"
 preserveAspectRatio="xMidYMid meet">
<metadata>
Created by potrace 1.14, written by Peter Selinger 2001-2017
</metadata>
<g transform="translate(0.000000,1024.000000) scale(0.100000,-0.100000)"
fill="#000000" stroke="none">
<path d="M3108 10072 c-178 -182 -284 -311 -402 -490 -103 -156 -182 -296
-268 -472 -69 -143 -75 -156 -131 -290 -175 -425 -332 -975 -421 -1482 -4 -21
-11 -38 -16 -38 -12 0 -180 -81 -260 -125 -131 -73 -289 -175 -392 -254 -25
-20 -61 -47 -79 -61 -312 -239 -685 -605 -945 -930 -33 -41 -64 -81 -68 -88
-9 -15 46 -167 105 -292 133 -278 346 -530 694 -819 123 -102 381 -276 574
-386 l122 -70 -6 -43 c-4 -24 -8 -54 -11 -65 -15 -77 -51 -295 -64 -394 -6
-46 -13 -97 -16 -115 -2 -18 -9 -69 -14 -113 -13 -103 -20 -154 -25 -185 -2
-14 -7 -56 -10 -95 -4 -38 -8 -81 -10 -95 -2 -14 -7 -54 -10 -90 -3 -36 -8
-76 -10 -90 -2 -14 -7 -59 -10 -100 -3 -41 -8 -91 -10 -110 -3 -19 -7 -64 -10
-100 -3 -36 -8 -81 -10 -100 -2 -19 -7 -75 -10 -125 -4 -49 -8 -101 -10 -115
-2 -14 -7 -68 -10 -120 -4 -52 -8 -111 -10 -130 -2 -19 -6 -78 -10 -130 -4
-52 -8 -111 -10 -130 -2 -19 -6 -84 -10 -145 -4 -60 -8 -130 -10 -155 -2 -25
-7 -92 -10 -150 -3 -58 -8 -125 -10 -150 -5 -61 -19 -316 -30 -545 -3 -71 -8
-157 -10 -190 -2 -33 -7 -134 -11 -225 -3 -91 -7 -186 -8 -212 l-3 -48 3873 0
3872 0 -3 53 c-2 28 -6 127 -10 218 -4 91 -8 195 -10 230 -2 35 -7 118 -10
184 -3 66 -8 147 -10 180 -2 33 -6 112 -10 175 -3 63 -8 144 -10 180 -2 36 -7
108 -10 160 -3 52 -8 124 -10 160 -3 36 -7 101 -10 145 -4 44 -8 105 -10 135
-2 30 -7 93 -11 140 -3 47 -7 101 -9 120 -2 19 -7 82 -10 140 -4 58 -9 113
-11 123 -2 10 -6 58 -9 105 -3 48 -8 101 -10 117 -2 17 -7 64 -10 105 -4 41
-8 89 -10 105 -1 17 -6 62 -9 100 -4 39 -9 86 -11 105 -3 19 -7 58 -10 85 -13
133 -42 383 -50 443 -5 34 -7 49 -25 182 -10 80 -22 160 -36 240 -3 19 -7 46
-9 60 -2 14 -6 40 -9 58 -3 17 -8 47 -11 65 -3 17 -11 58 -17 90 -6 32 -9 59
-7 61 2 2 54 31 114 66 61 34 187 113 280 176 516 343 878 735 1027 1109 71
177 80 204 72 217 -23 40 -201 251 -304 362 -447 483 -909 846 -1332 1049 -54
26 -102 47 -107 47 -5 0 -14 24 -20 53 -5 28 -22 113 -37 187 -182 929 -549
1795 -978 2310 -75 91 -354 380 -366 380 -3 0 -23 -17 -46 -38 -22 -20 -65
-57 -94 -82 -30 -25 -75 -63 -100 -85 -26 -22 -60 -51 -76 -65 -30 -25 -215
-190 -224 -200 -3 -3 -34 -32 -70 -64 -401 -367 -871 -842 -1192 -1204 -35
-39 -58 -52 -58 -34 0 4 -21 30 -46 57 -26 28 -67 73 -92 100 -253 280 -617
646 -1037 1040 -28 26 -167 152 -199 180 -6 6 -34 30 -61 55 -113 101 -392
340 -398 340 -2 0 -74 -71 -159 -158z"/>
</g>
</svg>
