<?xml version="1.0" standalone="no"?>
<!DOCTYPE svg PUBLIC "-//W3C//DTD SVG 20010904//EN"
 "http://www.w3.org/TR/2001/REC-SVG-20010904/DTD/svg10.dtd">
<svg version="1.0" xmlns="http://www.w3.org/2000/svg"
 width="1024.000000pt" height="1024.000000pt" viewBox="0 0 1024.000000 1024.000000"
 preserveAspectRatio="xMidYMid meet">
<metadata>
Created by potrace 1.14, written by Peter Selinger 2001-2017
</metadata>
<g transform="translate(0.000000,1024.000000) scale(0.100000,-0.100000)"
fill="#000000" stroke="none">
<path d="M3663 10226 c3 -8 9 -32 13 -53 4 -21 11 -46 16 -56 9 -17 11 -16 39
4 35 24 54 53 63 92 l6 27 -71 0 c-58 0 -70 -3 -66 -14z"/>
<path d="M4650 10222 c-14 -9 -27 -19 -30 -22 -8 -8 -31 -13 -89 -17 -30 -3
-74 -11 -98 -18 -25 -8 -50 -11 -57 -9 -7 3 -35 0 -62 -6 -27 -7 -67 -14 -89
-16 -121 -12 -144 -16 -161 -29 -24 -18 -55 -18 -119 -2 -66 18 -109 6 -160
-44 -23 -21 -45 -39 -49 -39 -5 0 -14 -6 -20 -14 -9 -11 -17 -12 -36 -3 -15 6
-122 12 -260 14 -129 2 -259 5 -288 6 -56 2 -74 -10 -65 -44 9 -34 -7 -86 -38
-120 -16 -19 -38 -51 -47 -71 -22 -51 -52 -52 -52 -3 0 24 -5 35 -15 35 -8 0
-19 9 -25 21 -9 15 -18 19 -42 15 -54 -8 -92 -65 -53 -80 8 -3 15 -15 15 -26
0 -15 -7 -20 -25 -20 -19 0 -26 -7 -31 -27 -9 -44 -26 -83 -34 -83 -5 0 -16
-7 -25 -16 -15 -15 -17 -15 -30 2 -18 23 -19 34 -3 34 9 0 9 3 1 11 -14 14
-53 2 -53 -16 0 -22 -38 -28 -65 -11 -28 18 -41 7 -47 -39 -2 -25 -10 -32 -42
-43 -34 -11 -40 -10 -52 5 -7 10 -14 35 -14 56 0 38 -2 40 -53 51 -21 5 -29 2
-33 -11 -3 -10 -12 -31 -19 -46 -11 -20 -12 -34 -5 -47 6 -10 10 -34 10 -54 0
-25 8 -43 31 -65 25 -26 29 -34 19 -46 -15 -18 -66 -11 -91 11 -20 18 -49 18
-85 0 -18 -10 -33 -12 -45 -6 -15 8 -20 2 -34 -43 -10 -28 -27 -69 -38 -89
-18 -33 -25 -38 -58 -38 -20 0 -50 7 -65 15 -17 9 -40 13 -56 9 -15 -3 -35 -1
-45 4 -29 15 -83 2 -95 -22 -8 -19 -2 -33 36 -87 69 -96 72 -104 52 -134 -9
-14 -25 -25 -35 -25 -11 0 -28 -15 -40 -34 -12 -18 -35 -39 -51 -46 -17 -7
-30 -18 -30 -25 0 -6 -9 -20 -20 -30 -11 -10 -20 -24 -20 -31 0 -15 -38 -44
-57 -44 -17 0 -17 47 1 57 7 4 15 20 18 35 7 38 -17 41 -134 12 -23 -5 -26 -4
-21 15 6 24 3 25 -32 9 -30 -13 -36 -57 -7 -60 9 -1 24 -2 32 -4 8 -1 19 -2
23 -3 5 -1 -1 -13 -12 -28 -24 -30 -55 -128 -46 -143 9 -15 41 -12 55 5 15 18
40 20 40 3 -1 -30 -57 -77 -112 -93 -47 -13 -59 -22 -72 -49 -14 -30 -42 -53
-53 -43 -9 10 16 121 29 128 8 4 23 27 33 49 22 50 13 73 -31 78 -24 2 -35 -5
-62 -39 -17 -24 -32 -48 -32 -54 0 -7 -9 -20 -20 -30 -23 -21 -28 -89 -6 -102
7 -4 21 -25 31 -46 30 -63 -1 -109 -90 -135 -57 -16 -100 -51 -148 -119 -23
-32 -68 -82 -99 -112 -40 -37 -63 -69 -77 -105 l-19 -51 -54 2 c-29 2 -68 -2
-86 -8 -29 -9 -32 -15 -32 -48 0 -22 8 -48 19 -62 50 -64 67 -127 42 -152 -16
-16 -13 -57 9 -105 19 -42 24 -108 9 -118 -5 -2 -6 -11 -2 -19 3 -8 0 -15 -6
-15 -6 0 -11 -8 -11 -18 0 -9 -9 -23 -20 -30 -11 -7 -27 -30 -36 -52 -12 -31
-22 -40 -39 -40 -13 0 -27 -4 -30 -10 -13 -21 -25 -9 -25 25 0 23 4 35 12 34
24 -4 70 20 62 33 -4 6 -3 9 2 6 5 -3 15 0 22 8 7 8 11 14 8 14 -2 0 -1 13 4
28 6 23 4 31 -11 40 -10 7 -24 12 -31 12 -18 0 -39 36 -32 55 9 23 -29 19 -44
-5 -8 -13 -23 -20 -42 -20 -17 0 -42 -7 -55 -16 -23 -15 -24 -21 -20 -77 7
-78 13 -97 30 -97 8 0 23 -9 34 -21 12 -13 21 -17 26 -10 14 24 22 9 14 -26
-12 -56 -36 -99 -65 -118 -22 -14 -25 -22 -23 -63 3 -38 0 -48 -14 -50 -9 -2
-17 -9 -17 -15 0 -8 -4 -7 -12 1 -16 16 -28 15 -28 -3 0 -11 -11 -15 -40 -15
-38 0 -40 -2 -65 -53 -30 -65 -30 -68 -5 -97 16 -18 20 -37 20 -90 0 -37 6
-83 14 -101 7 -19 16 -50 20 -70 5 -31 3 -37 -19 -49 -30 -16 -33 -49 -10
-105 13 -29 14 -44 5 -70 -6 -19 -10 -40 -9 -47 2 -7 -1 -28 -5 -46 -9 -37
-41 -56 -92 -53 -19 1 -37 -6 -49 -19 -10 -11 -24 -20 -31 -20 -20 0 -25 -15
-13 -48 10 -29 46 -62 69 -62 5 0 10 11 10 24 0 27 27 39 54 24 16 -9 21 -45
8 -64 -4 -6 -16 -16 -27 -22 -12 -6 -28 -34 -39 -66 -17 -49 -17 -60 -6 -81
11 -20 11 -33 2 -58 -8 -22 -8 -45 -2 -73 6 -26 6 -54 0 -75 -6 -19 -10 -50
-10 -69 0 -41 -27 -87 -61 -104 l-24 -12 -2 -354 -3 -355 32 -15 c25 -12 35
-25 45 -59 14 -51 33 -244 33 -348 0 -40 5 -84 12 -98 8 -19 9 -28 1 -33 -10
-7 -16 -44 -14 -85 1 -11 15 -24 36 -33 21 -8 37 -23 40 -37 11 -42 12 -102 2
-114 -15 -20 -26 -15 -20 8 5 17 2 19 -19 14 -16 -4 -29 -1 -37 9 -8 9 -21 16
-30 16 -9 0 -22 9 -29 20 -14 23 -47 28 -39 5 4 -8 2 -17 -3 -20 -13 -8 -13
-125 0 -125 5 0 31 5 59 11 43 9 52 8 70 -8 12 -9 21 -25 21 -35 0 -14 6 -16
29 -12 37 8 47 -9 31 -55 -9 -29 -9 -46 0 -77 28 -93 29 -106 13 -130 -11 -17
-13 -40 -9 -90 5 -65 5 -66 -14 -49 -18 16 -20 16 -26 2 -7 -20 20 -145 36
-161 6 -6 38 -11 71 -11 40 0 59 -4 59 -12 0 -7 8 -13 18 -13 33 0 65 -133 40
-173 -18 -28 -12 -57 12 -57 10 0 21 -6 23 -12 4 -9 12 -5 25 11 17 21 21 22
38 10 25 -18 28 -30 27 -111 0 -39 5 -68 10 -68 6 0 7 -3 4 -6 -3 -4 -2 -15 4
-25 8 -15 6 -19 -8 -19 -19 1 -73 70 -73 94 0 20 -24 37 -57 39 -25 2 -29 -2
-39 -43 -14 -58 -8 -78 40 -130 31 -35 46 -44 82 -48 24 -2 49 0 56 5 20 16
68 25 68 13 0 -5 -4 -10 -8 -10 -5 0 -9 -16 -10 -35 -1 -19 -7 -45 -13 -57
-10 -18 -9 -24 6 -33 48 -28 104 -77 110 -95 3 -11 11 -20 16 -20 6 0 7 5 3
12 -4 7 -3 8 4 4 7 -4 12 -10 12 -14 0 -7 -78 -45 -118 -57 -29 -9 -45 -47
-32 -79 18 -49 106 -44 185 10 44 30 72 30 101 3 29 -27 23 -44 -33 -95 l-45
-41 23 -35 c19 -30 93 -88 112 -88 3 0 5 15 5 34 0 50 10 73 35 80 15 4 27 -1
40 -16 23 -28 15 -80 -19 -121 -33 -39 -32 -74 3 -90 16 -6 31 -15 34 -20 9
-13 110 -46 124 -41 8 3 16 -4 20 -18 4 -13 13 -30 20 -38 7 -8 16 -31 20 -50
5 -33 3 -36 -33 -57 l-39 -22 9 -63 c5 -35 14 -73 20 -85 13 -27 65 -48 83
-33 6 5 14 7 18 4 11 -12 46 7 40 22 -11 30 26 12 76 -36 29 -28 57 -47 63
-44 7 4 5 10 -5 16 -14 7 -12 14 14 53 17 25 31 45 33 45 9 0 3 -54 -9 -77
-16 -30 -7 -41 21 -25 12 7 21 6 29 -2 17 -17 25 -45 15 -51 -6 -4 -10 -15
-10 -25 0 -12 -5 -17 -13 -14 -14 5 -18 -39 -4 -52 4 -5 5 0 1 10 -5 14 -3 17
7 14 15 -5 19 -63 7 -112 -5 -18 -3 -35 4 -44 7 -8 17 -23 23 -34 5 -11 27
-30 48 -42 47 -26 87 -61 112 -99 22 -34 103 -77 145 -77 18 0 37 8 47 20 13
15 30 20 70 20 38 0 53 -4 53 -13 0 -8 9 -22 20 -32 11 -10 20 -27 20 -37 0
-31 18 -56 53 -75 18 -10 37 -18 42 -19 40 -5 75 -18 79 -30 3 -8 12 -14 20
-14 19 0 29 -50 21 -99 -3 -21 -3 -55 0 -75 7 -32 10 -36 39 -36 42 0 57 12
65 51 13 67 95 42 107 -31 9 -53 21 -59 51 -25 32 33 60 30 139 -17 51 -31 54
-35 48 -63 -3 -16 -6 -50 -7 -75 -2 -44 -2 -45 28 -42 17 2 44 12 62 23 35 22
109 33 118 18 4 -5 15 -9 26 -9 10 0 19 -4 19 -10 0 -5 16 -16 35 -24 32 -14
35 -19 35 -56 0 -22 6 -56 14 -75 l15 -34 103 1 c118 1 156 15 137 49 -8 16
-7 26 6 45 8 13 18 24 22 24 12 0 73 -42 73 -51 0 -5 10 -9 21 -9 17 0 19 -3
10 -13 -8 -11 -7 -14 7 -14 9 0 22 3 27 7 13 11 143 -13 175 -31 29 -17 49
-39 50 -56 0 -7 -14 -28 -30 -47 -24 -26 -29 -40 -24 -60 7 -27 58 -51 87 -40
16 6 37 61 37 97 0 10 5 15 10 12 13 -8 13 -2 -2 30 -8 17 -17 24 -27 20 -28
-11 -33 -10 -39 4 -3 9 0 12 10 9 8 -4 21 -2 28 2 10 6 19 0 32 -20 11 -20 23
-28 33 -24 8 4 23 0 32 -7 12 -11 17 -11 20 -2 4 10 10 9 26 -1 12 -8 37 -13
55 -12 17 2 32 0 32 -3 0 -8 -1 -8 140 -15 58 -3 146 -15 195 -27 50 -11 119
-22 155 -23 96 -5 190 -25 218 -47 23 -18 46 -19 453 -19 279 0 429 3 429 10
0 6 7 10 16 10 9 0 46 13 82 29 37 16 94 32 127 35 141 15 162 18 205 28 77
17 159 24 208 18 26 -3 81 -2 122 1 92 8 99 2 105 -81 1 -19 3 -38 4 -42 0 -5
24 -8 51 -8 l50 0 0 38 c0 44 -11 61 -62 91 -40 24 -46 37 -25 63 11 14 76 39
137 51 14 3 43 10 65 16 21 5 44 6 50 2 16 -13 104 -34 135 -33 16 0 38 6 49
12 14 7 26 7 38 0 10 -5 44 -16 75 -24 51 -12 60 -12 89 3 22 11 36 29 45 56
8 22 14 41 14 42 0 1 -7 9 -16 17 -14 15 -14 17 3 23 9 4 28 20 41 35 17 20
33 28 56 28 17 0 41 7 52 15 12 8 25 11 29 7 4 -4 4 7 1 25 -4 17 -3 34 2 37
12 7 31 -15 64 -74 22 -39 30 -45 58 -45 47 0 57 22 41 85 -23 90 -6 109 106
114 23 1 45 5 49 9 4 4 18 7 30 7 17 0 25 7 30 26 4 15 14 34 23 43 16 16 19
15 43 -9 14 -14 31 -35 37 -47 11 -21 51 -27 68 -10 3 4 14 7 24 7 21 0 29 20
29 75 0 26 -6 50 -16 59 -21 22 -10 52 26 67 16 8 27 16 24 20 -2 3 11 3 29
-1 21 -4 40 -1 57 9 40 24 89 75 90 92 0 9 9 28 20 42 11 14 20 30 20 36 0 21
89 12 145 -15 68 -34 94 -28 136 31 18 24 40 47 49 50 9 3 32 20 51 38 19 18
65 60 103 92 37 33 63 61 57 63 -15 5 4 39 31 53 18 10 20 9 14 -6 -4 -10 27
15 69 55 70 69 74 75 59 92 -16 16 -15 18 2 25 11 4 25 13 32 20 7 6 18 10 26
7 15 -6 96 78 96 100 0 7 7 19 15 26 16 13 21 70 7 70 -5 0 -16 16 -25 36 -15
30 -21 35 -45 31 -15 -3 -35 -8 -44 -12 -16 -6 -16 -4 -7 24 6 17 17 31 25 31
8 0 25 10 40 22 14 13 42 25 62 28 33 4 37 9 40 35 2 26 -2 33 -27 45 -22 11
-28 19 -22 29 8 12 15 11 50 -3 23 -9 50 -16 59 -16 22 0 57 36 66 66 7 25
-20 52 -74 74 -27 11 -31 17 -25 39 8 32 53 81 75 81 20 0 55 -37 64 -67 7
-23 36 -39 45 -25 3 5 16 13 29 17 28 8 63 61 55 84 -10 28 -37 53 -70 68 -18
7 -33 19 -33 26 0 30 60 151 87 176 17 15 32 34 35 42 8 22 62 -10 66 -40 4
-28 -45 -84 -69 -78 -8 2 -24 -2 -34 -9 -17 -13 -16 -16 21 -49 71 -63 172
-75 226 -26 32 29 33 29 14 50 -11 12 -27 21 -37 21 -32 0 -49 39 -49 115 0
64 3 74 26 95 21 21 24 30 19 62 l-7 38 41 0 c22 0 43 -5 46 -11 4 -5 18 -15
32 -20 21 -8 32 -4 69 23 35 27 43 39 44 65 0 28 -7 36 -65 74 -36 23 -66 45
-66 48 -1 3 -2 18 -3 32 -1 15 -7 34 -15 42 -9 12 -10 21 -1 36 18 34 36 24
63 -33 27 -56 50 -76 86 -76 22 0 28 14 11 25 -6 4 -8 15 -5 26 5 14 0 22 -17
30 -14 6 -32 25 -42 44 -17 31 -17 34 0 60 10 15 17 43 16 64 -1 31 3 40 23
49 14 6 25 16 25 21 0 12 62 43 93 46 12 1 27 3 34 4 6 0 21 18 33 39 21 35
22 40 9 102 -7 36 -13 94 -14 129 -1 48 -5 65 -18 73 -21 11 -21 83 1 148 9
29 13 65 9 103 -3 32 -1 72 4 90 9 33 53 77 76 77 7 0 13 7 13 15 0 12 14 15
70 15 l70 0 0 45 0 45 -42 -5 c-58 -8 -118 -26 -118 -37 0 -4 -5 -8 -11 -8 -8
0 -8 4 -2 13 6 6 13 24 17 40 3 15 11 27 16 27 6 0 10 7 10 15 0 8 -3 15 -8
15 -13 0 -5 124 12 180 10 32 19 105 22 175 5 141 17 168 87 189 16 5 17 31
17 369 l0 365 -35 26 c-58 45 -73 86 -80 227 -4 68 -7 129 -7 134 0 6 1 56 3
112 1 57 -3 108 -8 115 -19 25 -35 78 -29 93 3 9 2 13 -4 10 -6 -3 -10 -1 -10
4 0 6 5 11 10 11 6 0 10 7 10 15 0 8 9 15 19 15 10 0 21 -7 25 -15 6 -17 36
-20 36 -4 0 6 6 9 14 6 7 -3 23 1 35 9 17 12 21 26 21 68 l0 53 -38 7 c-68 10
-146 39 -170 60 -19 18 -23 35 -27 105 -2 46 -9 98 -15 116 -9 26 -8 45 5 87
9 29 21 61 26 71 6 11 9 50 7 88 -3 66 -4 69 -32 79 -16 5 -37 10 -46 10 -10
0 -20 7 -23 15 -4 9 -16 13 -36 10 -24 -3 -35 2 -50 23 -27 38 -34 84 -33 192
2 87 4 97 26 116 28 25 41 60 26 69 -5 3 -10 20 -10 36 0 16 -6 32 -14 35 -8
3 -19 18 -24 33 -9 25 -14 27 -52 24 -37 -3 -46 1 -83 37 -23 22 -47 40 -53
40 -6 0 -12 19 -13 43 -3 53 -3 56 5 88 5 22 2 27 -20 33 -38 9 -37 53 2 62
15 3 32 7 37 9 6 1 10 17 9 35 -1 49 -26 63 -96 55 -57 -7 -58 -7 -58 19 0 14
-4 26 -10 26 -5 0 -10 6 -10 13 0 6 -48 62 -106 122 l-106 110 7 87 c6 80 5
87 -14 97 -10 6 -25 28 -32 48 -16 49 -129 166 -152 157 -9 -3 -19 -14 -22
-24 -7 -21 -35 -16 -35 6 0 8 -7 14 -15 14 -8 0 -15 -4 -15 -10 0 -5 0 -13 0
-17 0 -4 6 -8 13 -8 22 -2 48 -17 79 -49 17 -17 30 -31 29 -31 -1 0 2 -12 8
-27 6 -16 15 -28 20 -28 17 0 34 -79 20 -96 -15 -19 -45 -18 -53 2 -3 8 -10
13 -14 10 -5 -3 -18 8 -31 23 -17 21 -29 26 -50 23 -23 -3 -29 1 -34 19 -5 18
-9 20 -21 10 -10 -8 -16 -9 -21 -1 -3 5 1 10 9 10 9 0 16 7 16 16 0 12 6 15
25 10 18 -5 25 -2 25 9 0 8 -7 15 -15 15 -7 0 -18 7 -23 16 -5 10 -15 14 -21
10 -9 -6 -9 -11 0 -22 7 -8 7 -14 1 -14 -5 0 -15 6 -22 14 -9 12 -7 17 9 28
24 15 29 51 6 42 -8 -4 -15 -1 -15 5 0 6 8 11 18 12 13 0 12 2 -5 9 -22 9 -27
20 -24 48 4 24 -21 42 -55 42 -18 0 -36 5 -40 12 -5 8 -10 6 -15 -8 -4 -12 -1
-26 9 -36 14 -16 13 -18 -2 -18 -30 0 -110 50 -138 88 -33 42 -35 62 -8 62 11
0 23 6 26 14 7 17 40 9 57 -13 7 -10 22 -17 35 -17 25 0 28 6 10 24 -9 9 -9
12 0 12 6 0 9 7 5 16 -4 12 0 15 18 12 15 -2 23 -9 22 -18 -3 -18 34 -25 52
-10 17 14 49 -16 40 -37 -5 -10 -9 -21 -9 -25 -1 -3 -4 -10 -8 -14 -11 -11
-10 -42 2 -49 6 -4 18 -1 27 7 14 11 16 11 10 -4 -3 -9 1 -22 9 -28 10 -9 14
-9 14 -1 0 16 19 14 36 -4 17 -17 54 -20 54 -6 0 20 -104 133 -278 301 -100
96 -186 176 -192 178 -5 2 -7 -3 -4 -12 3 -9 2 -16 -4 -16 -5 0 -17 18 -26 40
-9 22 -19 40 -24 40 -4 0 -25 17 -47 38 -22 22 -51 45 -63 51 -29 15 -116 6
-133 -15 -8 -10 -8 -14 0 -14 7 0 6 -9 -5 -25 -15 -24 -64 -36 -64 -17 0 5
-11 14 -24 20 -14 6 -25 19 -24 29 2 50 -15 81 -76 141 -50 49 -72 63 -95 64
-42 1 -65 37 -57 88 3 21 1 52 -5 69 -10 28 -15 31 -54 31 -24 0 -47 -5 -50
-11 -4 -6 -13 -8 -20 -5 -7 2 -22 -4 -33 -15 -28 -25 -39 -24 -65 6 -18 21
-34 27 -92 31 -38 3 -78 10 -87 15 -17 9 -44 86 -34 97 9 9 -14 31 -28 26 -8
-3 -11 5 -8 28 2 25 -2 36 -17 46 -14 8 -21 8 -21 1 0 -6 -8 -8 -19 -4 -14 4
-21 0 -26 -15 -7 -23 -23 -24 -112 -9 -84 15 -107 34 -108 90 0 25 -9 58 -20
77 l-20 32 -75 -6 c-41 -3 -90 -10 -107 -14 -18 -5 -35 -5 -38 0 -11 18 -66
22 -84 6 -19 -18 -118 -29 -127 -14 -6 9 -57 4 -87 -7 -10 -4 -28 -3 -40 2
-12 6 -39 18 -59 26 -21 9 -38 22 -38 27 0 22 21 50 46 63 20 10 27 23 30 51
3 31 -1 38 -20 46 -13 5 -27 14 -31 19 -12 21 -45 12 -55 -15 -6 -14 -8 -29
-5 -34 10 -16 -17 -56 -43 -66 -15 -6 -49 -7 -77 -2 -27 4 -69 5 -93 3 -23 -2
-80 2 -125 10 -45 8 -116 17 -157 20 -41 3 -91 9 -110 12 -19 4 -44 8 -55 9
-80 10 -109 19 -136 45 l-31 29 -467 -1 c-419 0 -469 -2 -491 -17z m-1137
-292 c-6 -22 -33 -24 -40 -3 -4 10 9 17 39 22 3 0 4 -8 1 -19z m4772 -788 c-3
-3 -11 0 -18 7 -9 10 -8 11 6 5 10 -3 15 -9 12 -12z m-6307 -14 c13 -17 4 -74
-15 -90 -29 -24 -83 68 -56 95 11 12 60 8 71 -5z m6429 -62 c8 -14 19 -26 26
-26 7 0 4 -5 -5 -11 -13 -7 -31 -5 -63 6 -25 8 -54 15 -63 15 -21 0 -42 19
-42 37 0 11 15 13 67 9 59 -4 68 -7 80 -30z m133 10 c0 -3 -4 -8 -10 -11 -5
-3 -10 -1 -10 4 0 6 5 11 10 11 6 0 10 -2 10 -4z m-30 -26 c0 -5 -2 -10 -4
-10 -3 0 -8 5 -11 10 -3 6 -1 10 4 10 6 0 11 -4 11 -10z m105 -79 c3 -5 1 -12
-5 -16 -5 -3 -10 1 -10 9 0 18 6 21 15 7z m140 -32 c-6 -17 -4 -21 8 -16 26
10 27 -20 1 -42 -21 -18 -25 -19 -30 -6 -4 9 -18 15 -35 15 -56 0 -26 64 31
68 28 2 31 0 25 -19z m-100 0 c11 -17 -1 -21 -15 -4 -8 9 -8 15 -2 15 6 0 14
-5 17 -11z m118 -106 c-3 -7 -9 -10 -14 -7 -14 8 -11 21 5 21 8 0 12 -6 9 -14z
m336 -285 c1 -5 -3 -8 -9 -8 -5 0 -10 12 -9 28 0 24 1 25 9 7 5 -11 9 -23 9
-27z m-249 12 c-7 -4 -16 -13 -20 -20 -6 -9 -11 -6 -21 11 -12 23 -11 23 6 9
17 -13 18 -13 13 1 -5 13 -2 16 14 11 13 -3 16 -7 8 -12z m34 -16 c3 -8 2 -12
-4 -9 -6 3 -10 10 -10 16 0 14 7 11 14 -7z m-7814 -358 c0 -3 -4 -8 -10 -11
-5 -3 -10 -1 -10 4 0 6 5 11 10 11 6 0 10 -2 10 -4z m-44 -61 c-3 -8 0 -15 6
-15 7 0 6 -5 -2 -15 -7 -8 -9 -15 -5 -15 4 0 -6 -17 -22 -37 -16 -21 -35 -51
-42 -68 -7 -16 -35 -49 -62 -74 -40 -36 -49 -50 -49 -78 0 -20 -6 -36 -14 -39
-8 -3 -13 -11 -10 -19 5 -12 -30 -28 -40 -17 -10 9 -6 61 4 67 6 4 10 16 9 28
-4 45 1 87 11 87 13 0 50 32 50 43 0 5 9 22 21 38 16 23 24 27 35 19 20 -17
31 -5 26 30 -6 44 21 80 59 80 24 0 30 -4 25 -15z m3820 -151 c7 3 27 1 45 -4
20 -6 38 -6 50 0 12 7 20 7 24 -1 5 -6 12 -4 21 8 7 10 14 13 14 7 0 -7 10
-14 23 -18 19 -4 23 -13 24 -46 1 -22 -2 -38 -6 -36 -4 3 -8 -2 -8 -10 0 -9 6
-13 15 -9 12 5 13 3 2 -10 -7 -9 -19 -14 -26 -11 -12 5 -31 -29 -26 -47 1 -5
-2 -5 -8 -2 -7 4 -14 -2 -17 -14 -3 -12 -9 -21 -14 -21 -5 0 -30 -21 -54 -47
-32 -33 -47 -58 -52 -86 -3 -21 -12 -41 -20 -44 -8 -3 -13 -15 -12 -27 2 -36
-1 -40 -16 -20 -8 11 -15 14 -15 7 0 -7 -3 -12 -7 -12 -22 4 -43 -2 -43 -12 0
-5 4 -8 8 -5 4 2 13 -4 20 -14 9 -14 8 -19 -4 -24 -9 -3 -12 -1 -9 4 9 15 -11
12 -24 -3 -6 -8 -33 -15 -62 -16 -28 -1 -60 -6 -71 -12 -11 -6 -25 -8 -32 -6
-7 3 -19 -3 -26 -13 -7 -10 -20 -16 -28 -12 -10 3 -13 1 -8 -6 4 -7 1 -26 -7
-44 -18 -40 -22 -108 -7 -108 6 0 8 -4 5 -10 -3 -5 -2 -10 2 -10 16 0 9 -40
-7 -41 -9 0 -10 -2 -3 -5 7 -3 9 -12 6 -20 -6 -17 30 -47 106 -87 31 -16 59
-33 62 -38 3 -6 16 -11 27 -12 16 -1 20 -6 16 -19 -3 -10 -1 -18 5 -18 10 0
-14 -56 -29 -65 -4 -3 -6 -14 -3 -24 3 -10 0 -22 -6 -25 -7 -5 -4 -14 8 -27
19 -21 18 -69 -3 -69 -6 0 -4 -5 4 -10 13 -9 13 -12 -1 -23 -12 -9 -14 -19 -7
-42 4 -16 6 -36 3 -42 -2 -7 -1 -12 3 -12 20 3 32 -3 32 -16 0 -8 6 -15 13
-15 18 0 93 -72 101 -97 5 -14 13 -19 25 -16 13 3 23 -2 30 -16 7 -12 17 -21
24 -21 7 0 25 -11 40 -25 15 -14 27 -22 27 -18 0 4 9 -7 20 -25 24 -40 27 -77
5 -68 -12 4 -14 0 -9 -19 4 -18 2 -25 -8 -25 -15 0 -44 -40 -39 -55 2 -5 5
-21 6 -35 1 -14 3 -31 4 -38 0 -7 5 -11 10 -8 4 3 8 -22 7 -56 0 -40 4 -63 12
-66 16 -5 15 -29 0 -35 -10 -4 -10 -8 1 -15 9 -7 12 -20 8 -40 -4 -18 0 -37 8
-50 13 -17 13 -21 -1 -26 -9 -3 -14 -12 -11 -20 5 -13 -10 -69 -26 -93 -4 -6
-4 -18 -1 -27 3 -9 1 -16 -5 -16 -9 0 -9 -5 -1 -21 9 -15 8 -24 -1 -35 -9 -11
-9 -14 2 -15 11 0 11 -2 1 -6 -10 -4 -10 -8 -2 -19 14 -16 4 -68 -16 -85 -8
-6 -14 -20 -14 -30 0 -10 -4 -20 -10 -24 -5 -3 -7 -12 -3 -20 4 -11 1 -13 -11
-9 -10 4 -16 1 -16 -9 0 -9 -7 -22 -15 -31 -9 -8 -15 -17 -15 -18 4 -10 -14
-37 -21 -32 -5 3 -9 1 -9 -4 0 -13 -43 -7 -48 7 -3 8 -8 9 -16 2 -23 -19 -138
-28 -185 -14 -25 8 -49 9 -55 4 -18 -14 -155 -5 -167 12 -3 4 -18 3 -32 -2
-15 -6 -26 -7 -24 -3 1 5 -11 20 -26 34 -21 20 -28 34 -25 55 1 15 -2 27 -7
26 -6 -1 -10 12 -11 29 -1 16 2 25 6 18 5 -8 11 -6 20 5 7 8 22 15 33 15 11 0
26 8 33 18 12 15 15 15 24 2 6 -10 10 -11 10 -2 0 6 7 12 16 12 8 0 12 -4 9
-10 -3 -6 1 -7 9 -4 9 3 16 2 16 -2 0 -5 41 -9 90 -9 64 0 90 4 90 12 0 7 7
10 15 7 8 -4 25 0 38 8 12 8 34 14 49 14 14 -1 24 2 22 6 -3 4 5 12 16 18 11
6 20 20 20 31 0 15 5 19 15 15 11 -4 15 1 15 18 0 14 6 26 13 29 9 3 9 9 -1
27 -11 18 -11 26 4 48 16 24 16 26 1 13 -18 -15 -17 -17 -22 54 -1 17 -4 37
-8 45 -11 28 -29 103 -33 142 -2 21 -8 47 -14 58 -8 14 -8 20 0 20 6 0 8 5 4
12 -4 7 -7 31 -5 54 1 24 -4 56 -13 73 -9 16 -16 44 -16 61 0 17 -6 46 -14 65
-8 18 -12 36 -9 39 3 3 0 12 -6 20 -7 8 -10 20 -6 26 4 6 -3 18 -14 28 -23 19
-35 80 -20 98 7 9 5 16 -9 23 -21 11 -34 44 -23 58 3 4 4 7 2 6 -9 -6 -31 20
-31 36 0 9 -8 32 -18 51 -11 19 -17 41 -15 48 3 6 0 12 -6 12 -5 0 -15 16 -22
34 -7 19 -16 33 -21 30 -4 -3 -11 3 -14 13 -3 10 -12 32 -21 50 -8 17 -15 34
-15 37 1 3 -5 23 -12 43 -7 21 -11 44 -9 50 3 7 -5 26 -16 42 -12 16 -21 34
-21 39 0 6 -5 12 -11 14 -7 2 -12 18 -13 35 0 17 -3 29 -5 27 -7 -7 -41 28
-41 43 0 7 -4 13 -10 13 -5 0 -10 8 -10 19 0 10 -6 24 -14 30 -21 18 -76 129
-76 155 0 11 -9 38 -20 58 -11 21 -17 44 -14 52 3 8 1 17 -5 21 -17 10 -13 54
7 78 22 28 92 29 142 4 19 -10 70 -23 112 -30 70 -10 80 -9 115 9 38 19 93 71
93 88 0 5 7 17 15 26 8 9 16 30 17 46 1 16 8 35 15 42 7 8 11 18 7 23 -3 5 -2
8 3 7 4 -2 25 14 45 34 l37 38 42 -16 c24 -8 49 -12 55 -10z m597 14 c33 -8
49 -20 65 -47 12 -20 31 -48 43 -62 11 -14 25 -45 30 -70 11 -47 36 -82 51
-72 13 7 58 -45 58 -68 0 -33 37 -43 89 -24 79 29 101 40 101 48 0 5 4 6 9 3
5 -3 22 1 37 9 16 8 38 15 50 15 11 0 25 5 30 10 15 15 64 -5 65 -27 0 -10 2
-31 3 -48 1 -17 -6 -41 -17 -56 -10 -15 -20 -42 -23 -60 -3 -36 -22 -90 -42
-126 -7 -12 -12 -29 -12 -37 0 -9 -6 -16 -14 -16 -8 0 -17 -15 -20 -36 -4 -19
-14 -38 -22 -41 -7 -3 -14 -11 -14 -17 0 -7 -9 -22 -20 -34 -11 -12 -20 -24
-20 -27 0 -3 -9 -16 -21 -28 -31 -33 -42 -57 -27 -57 9 0 9 -3 0 -12 -7 -7
-12 -29 -12 -51 0 -28 -3 -36 -12 -31 -9 5 -9 2 1 -9 8 -11 9 -17 2 -17 -7 0
-8 -8 -1 -25 6 -15 6 -25 0 -25 -5 0 -12 -9 -15 -21 -9 -27 -42 -76 -78 -114
-15 -16 -27 -34 -27 -40 0 -13 -36 -45 -50 -45 -6 0 -10 -4 -10 -10 0 -5 -6
-7 -14 -4 -7 3 -16 -2 -19 -10 -4 -9 -1 -16 6 -16 7 0 8 -3 2 -8 -15 -11 -17
-55 -3 -64 9 -5 9 -8 1 -8 -6 0 -16 -13 -22 -30 -5 -16 -6 -30 -2 -30 15 0 -4
-136 -20 -146 -5 -3 -9 -15 -9 -27 0 -13 -7 -32 -15 -43 -16 -24 -38 -142 -36
-191 1 -18 -2 -33 -8 -33 -5 0 -8 -15 -7 -32 2 -32 -6 -70 -24 -113 -14 -34
-19 -65 -9 -65 5 0 4 -11 -1 -25 -5 -14 -6 -25 -1 -25 16 0 12 -90 -4 -97 -17
-6 -20 -33 -4 -33 7 0 9 -10 5 -25 -5 -19 -2 -25 10 -25 10 0 14 -5 10 -15 -3
-9 0 -15 9 -15 7 0 19 -16 26 -34 7 -19 16 -33 19 -31 4 3 15 -4 24 -14 13
-14 29 -18 69 -16 29 1 60 6 70 10 11 4 17 3 17 -5 0 -8 4 -9 13 -3 6 5 25 9
42 8 16 -1 45 4 64 11 22 7 42 8 53 3 10 -5 27 -13 38 -19 11 -5 34 -10 52
-10 21 0 39 -8 53 -23 11 -13 27 -26 35 -30 12 -4 11 -6 -2 -6 -10 -1 -18 -5
-18 -11 0 -5 7 -6 17 -3 12 5 14 3 8 -8 -4 -8 -5 -11 0 -7 12 11 35 -11 28
-28 -3 -8 -23 -17 -44 -20 -21 -4 -39 -10 -39 -13 0 -4 -10 -7 -22 -8 -12 -1
-25 -9 -30 -17 -5 -8 -16 -12 -28 -9 -11 3 -26 1 -33 -4 -6 -5 -34 -7 -62 -5
-27 2 -77 3 -109 3 -39 -1 -68 4 -84 15 -19 12 -26 13 -32 4 -4 -7 -13 -9 -19
-5 -7 4 -20 3 -29 -1 -31 -13 -56 -17 -118 -18 -69 -1 -91 13 -91 58 0 15 -11
38 -23 52 -17 17 -19 24 -9 24 10 0 10 3 2 8 -6 4 -10 25 -10 47 1 26 -4 47
-16 60 -10 10 -15 25 -13 32 3 6 0 14 -7 17 -9 3 -9 7 1 14 13 9 6 42 -9 42
-5 0 -7 11 -3 24 4 18 0 32 -15 48 -12 12 -19 28 -17 35 3 7 -4 19 -15 27 -15
10 -17 15 -7 19 11 3 11 8 0 26 -7 12 -8 21 -2 21 5 0 10 7 10 15 0 8 -4 15
-10 15 -5 0 -10 14 -10 30 0 17 4 30 8 30 5 0 13 26 18 58 7 41 13 56 23 54
11 -2 12 0 3 10 -7 9 -8 19 -2 28 6 8 10 27 10 43 0 15 6 27 13 27 8 0 13 13
13 35 0 23 -3 32 -10 25 -12 -12 -39 59 -29 80 3 8 5 24 4 36 -1 13 7 25 24
34 14 7 23 15 20 18 -10 10 31 62 50 63 20 0 20 0 0 9 -11 5 -15 9 -10 10 6 1
15 3 20 4 6 1 23 7 38 14 16 7 32 12 37 12 9 0 24 30 22 43 -1 4 11 10 28 14
17 3 33 10 36 14 3 5 10 7 15 4 5 -4 9 3 9 14 0 14 6 21 20 21 11 0 23 7 26
15 7 18 -4 67 -14 61 -14 -8 -27 20 -30 64 -2 25 -7 49 -12 54 -14 14 -12 54
2 58 6 2 13 24 15 48 5 52 3 49 33 53 13 2 26 9 28 15 2 7 10 12 18 12 8 0 14
5 14 10 0 6 6 10 14 10 7 0 21 16 30 35 9 19 21 35 26 35 6 0 10 7 10 15 0 8
5 15 11 15 8 0 9 4 0 13 -6 8 -9 34 -8 58 2 31 -4 58 -20 90 -13 26 -23 55
-23 65 -1 29 -25 55 -44 48 -9 -3 -16 -2 -16 3 0 5 -6 10 -12 11 -44 6 -58 9
-64 14 -3 4 -12 4 -19 2 -7 -3 -16 0 -20 6 -5 8 -11 7 -23 -2 -12 -10 -16 -10
-20 0 -2 7 -10 19 -19 27 -8 8 -12 19 -8 24 3 5 1 12 -5 16 -6 4 -8 10 -5 15
3 4 -2 10 -10 14 -8 3 -15 1 -15 -4 0 -20 -18 -9 -24 15 -4 14 -11 25 -17 25
-6 0 -7 5 -4 11 11 17 -16 99 -36 110 -11 5 -19 6 -19 2 0 -4 -8 4 -17 17 -10
14 -16 35 -15 47 2 16 -2 23 -12 23 -15 0 -20 21 -19 68 1 6 -3 12 -8 12 -5 0
-9 9 -9 20 0 11 7 20 15 20 8 0 15 4 15 9 0 5 21 8 46 7 31 -2 48 2 51 11 3 8
13 11 25 7 14 -4 21 0 25 15 6 24 9 25 66 9z m-4713 -173 c0 -33 -15 -33 -16
0 -1 14 2 25 7 25 5 0 9 -11 9 -25z m8743 -267 c6 -22 5 -22 -8 -4 -17 22 -20
40 -6 32 5 -3 11 -16 14 -28z m57 -68 c0 -5 7 -7 15 -4 8 4 15 2 15 -3 0 -6
10 -14 22 -20 13 -6 26 -25 33 -49 7 -26 16 -38 26 -36 11 1 15 -5 14 -20 -1
-13 4 -32 11 -43 16 -22 19 -55 5 -55 -18 0 -62 43 -57 56 3 8 0 14 -6 14 -6
0 -9 3 -5 6 8 8 -25 44 -41 44 -9 0 -12 6 -8 16 4 11 2 15 -8 11 -16 -7 -39
24 -50 66 -5 23 -3 27 14 27 11 0 20 -4 20 -10z m195 -261 c10 -30 2 -32 -12
-3 -6 13 -7 24 -3 24 5 0 12 -9 15 -21z m-4482 -26 c-5 -17 -5 -17 12 -1 16
15 19 15 41 -9 30 -32 30 -56 2 -83 l-22 -20 28 0 c18 0 25 4 20 12 -4 7 -3 8
4 4 9 -5 8 -12 0 -26 -8 -12 -15 -15 -19 -9 -4 6 -16 8 -27 5 -16 -5 -25 -1
-37 18 -9 14 -14 30 -10 35 3 6 1 20 -5 31 -8 14 -8 26 0 40 13 25 22 26 13 3z
m-128 -99 c17 6 30 -10 15 -19 -15 -9 -1 -27 16 -21 7 3 16 1 19 -3 3 -5 -2
-12 -11 -15 -9 -4 -14 -13 -10 -21 6 -17 -3 -75 -13 -75 -14 1 -29 16 -33 35
-2 13 2 20 13 19 11 -1 14 5 11 23 -2 13 -9 26 -15 30 -6 3 -7 1 -3 -6 4 -6 0
-24 -10 -39 -10 -15 -17 -31 -16 -35 1 -5 -2 -6 -8 -2 -5 3 -10 0 -10 -7 -1
-7 -10 -2 -22 12 -20 24 -20 24 -14 3 10 -33 1 -28 -23 11 -17 27 -26 33 -48
30 -25 -2 -26 -1 -10 10 25 19 21 45 -9 52 -37 9 -13 21 48 23 28 1 57 6 64
12 8 7 14 6 18 -3 4 -10 9 -9 18 5 12 17 13 16 16 -3 2 -14 9 -20 17 -16z
m-297 -39 c2 -33 1 -34 -18 -23 -14 9 -16 15 -7 21 9 7 9 10 -2 14 -11 5 -11
7 0 14 22 14 24 11 27 -26z m-4471 -184 c10 -15 8 -61 -2 -61 -22 0 -33 14
-26 33 5 12 6 28 4 35 -7 19 11 14 24 -7z m4908 -440 c-3 -6 -11 -8 -17 -5 -6
4 -5 9 3 15 16 10 23 4 14 -10z m-2385 -451 c83 -15 94 -20 116 -45 12 -14 31
-25 42 -25 11 0 24 -4 27 -10 3 -5 13 -10 22 -10 8 0 24 -11 35 -25 10 -13 38
-33 61 -43 23 -10 48 -26 56 -35 7 -10 20 -17 28 -17 8 0 11 -4 8 -10 -3 -5 0
-10 8 -10 8 0 18 8 22 18 6 16 7 16 21 -2 11 -16 17 -17 26 -8 13 13 42 17 34
4 -2 -4 16 -9 41 -10 25 -1 51 -5 57 -10 6 -5 23 -7 39 -6 15 2 27 -1 27 -5 0
-9 51 -35 63 -33 4 1 16 -2 27 -8 10 -5 21 -6 24 -2 6 9 73 8 83 -1 3 -4 14
-7 24 -7 10 0 22 -7 27 -16 5 -9 12 -15 15 -15 25 3 31 0 17 -10 -12 -8 -10
-9 10 -7 36 4 52 -9 40 -32 -7 -13 -7 -21 0 -25 6 -4 8 -11 5 -16 -4 -5 1 -9
9 -9 9 0 16 -4 16 -8 0 -13 -77 -51 -87 -42 -14 13 -137 24 -129 11 4 -6 2 -9
-6 -6 -7 2 -35 6 -63 9 -146 16 -160 19 -177 39 -10 11 -18 15 -18 9 0 -6 -7
-9 -15 -6 -8 4 -15 13 -15 21 0 9 -6 13 -15 9 -18 -7 -45 3 -45 16 0 17 -44
46 -63 43 -9 -2 -15 0 -12 6 6 8 -56 15 -80 9 -5 -2 -50 -2 -100 -1 -245 5
-270 2 -260 -29 4 -13 -1 -23 -14 -32 -12 -7 -21 -16 -21 -21 0 -4 5 -5 10 -2
10 6 15 -13 12 -48 -1 -10 3 -15 8 -12 6 3 10 -2 11 -12 1 -13 3 -11 9 7 l8
25 1 -26 c2 -57 14 -91 35 -99 12 -5 15 -9 9 -9 -7 -1 -13 -7 -13 -14 0 -12
-30 -28 -80 -42 -14 -4 -28 -13 -32 -19 -5 -7 -8 -6 -8 4 0 10 -11 15 -34 16
-26 0 -33 -3 -28 -14 4 -12 1 -13 -14 -4 -15 8 -23 7 -37 -5 -16 -16 -107 -20
-128 -7 -5 3 -9 0 -9 -6 0 -6 -10 -14 -22 -19 -29 -11 -122 -75 -150 -103 -15
-15 -17 -22 -8 -28 9 -5 9 -9 1 -14 -6 -4 -8 -12 -5 -18 5 -7 2 -9 -7 -6 -23
9 -18 -51 6 -64 11 -7 25 -17 30 -23 10 -12 39 -28 100 -56 17 -8 35 -19 40
-25 13 -15 99 -28 90 -14 -3 5 1 10 9 10 9 0 16 -4 16 -9 0 -6 18 -9 40 -9 22
0 47 -5 55 -12 12 -10 15 -10 15 0 0 8 6 9 18 5 9 -4 24 -8 33 -9 23 -3 82
-63 74 -76 -4 -6 -12 -8 -18 -4 -7 3 -2 -4 11 -15 13 -11 27 -33 32 -48 4 -15
11 -37 16 -47 5 -14 4 -17 -4 -12 -8 5 -12 -2 -12 -23 0 -16 -4 -32 -9 -35
-10 -7 5 -86 19 -100 11 -11 61 -17 74 -8 6 3 29 7 52 7 22 1 45 5 52 9 6 4
20 1 31 -6 16 -9 25 -9 48 2 46 24 49 24 34 7 -9 -12 -10 -17 -2 -17 6 0 16
11 21 24 10 28 26 40 35 27 3 -6 23 -2 50 9 25 11 45 16 45 13 0 -4 5 -2 12 5
7 7 22 12 34 12 12 0 24 7 28 15 3 8 9 14 13 14 15 -4 43 13 37 22 -3 5 5 9
18 9 13 0 37 7 53 16 29 16 107 26 193 26 28 0 40 3 36 10 -5 7 -2 8 6 3 6 -4
39 -9 71 -11 33 -2 67 -8 77 -14 15 -9 14 -10 -5 -5 -12 3 -25 1 -29 -6 -4 -7
-2 -10 7 -7 18 7 51 -10 44 -23 -4 -5 -1 -9 4 -9 6 0 11 5 11 10 0 6 5 10 10
10 21 0 9 -20 -15 -26 -14 -3 -32 -19 -40 -35 -15 -29 -51 -55 -71 -51 -5 1
-20 -7 -31 -17 -21 -20 -70 -36 -133 -45 -19 -3 -51 -10 -70 -16 -19 -6 -52
-13 -72 -14 -21 -2 -45 -9 -55 -17 -13 -11 -15 -11 -9 -1 6 11 1 13 -20 11
-16 -2 -34 0 -39 3 -10 6 -135 -30 -145 -41 -8 -10 -34 -7 -42 4 -4 6 -8 0 -8
-13 0 -17 -7 -24 -30 -28 -16 -4 -30 -10 -30 -15 0 -5 -3 -8 -7 -7 -13 3 -63
-25 -63 -34 0 -5 -8 -7 -18 -4 -11 4 -24 -3 -36 -19 -10 -14 -23 -25 -28 -25
-5 0 -16 -6 -24 -14 -7 -8 -23 -12 -34 -9 -11 3 -20 1 -20 -5 0 -19 -59 -34
-104 -28 -44 7 -122 57 -109 70 3 3 2 6 -4 6 -14 0 -32 105 -25 153 2 21 11
41 18 44 8 3 14 11 14 19 0 8 15 24 34 36 19 13 34 30 33 40 -1 9 -5 14 -11
11 -5 -4 -7 1 -3 11 4 9 3 14 -2 11 -5 -3 -13 0 -17 6 -3 6 0 15 7 20 11 7 11
9 -2 9 -9 0 -21 10 -28 23 -7 13 -25 31 -41 40 -32 19 -40 16 -165 -64 -54
-35 -133 -43 -205 -23 -101 29 -122 61 -125 199 -1 55 2 107 6 115 15 30 22
55 20 74 -2 11 2 16 8 12 7 -5 11 3 11 18 0 14 -4 26 -8 26 -5 0 -9 15 -10 33
-1 30 -4 58 -16 132 -18 105 -17 152 2 210 12 33 27 60 34 61 7 0 33 9 58 20
25 10 51 17 58 16 8 -2 19 1 25 5 11 7 32 9 47 4 3 -1 19 -4 36 -5 29 -3 94
-41 102 -58 2 -5 10 -8 18 -8 8 0 14 -4 14 -9 0 -5 9 -11 21 -14 12 -3 18 -10
15 -16 -3 -5 2 -11 11 -13 11 -3 28 8 43 25 14 15 34 30 45 31 16 2 20 10 18
39 -2 29 1 37 14 37 15 0 15 2 -2 13 -10 8 -15 19 -11 25 4 6 -1 23 -11 38 -9
15 -18 34 -19 42 -2 8 -8 18 -14 22 -9 5 -8 13 2 29 8 14 9 24 3 29 -32 23 1
154 45 177 28 16 84 18 150 5z m4660 -40 c43 -44 43 -44 32 -87 -7 -24 -12
-54 -12 -68 0 -13 -5 -27 -11 -30 -6 -4 -8 -13 -5 -21 3 -8 2 -14 -2 -14 -12
0 -32 -60 -25 -76 3 -8 0 -14 -7 -14 -7 0 -9 -11 -6 -30 2 -16 0 -30 -5 -30
-16 0 -10 -18 12 -39 12 -11 27 -17 35 -14 8 3 14 1 14 -5 0 -26 35 -19 88 18
31 22 61 40 65 40 5 0 24 12 43 26 23 18 39 24 51 19 10 -5 22 -7 27 -6 22 5
125 -34 158 -60 20 -16 42 -29 48 -29 6 0 9 -4 6 -9 -4 -5 -1 -11 5 -13 9 -3
9 -9 0 -26 -10 -18 -9 -22 3 -22 19 0 16 -37 -14 -180 -10 -48 -14 -70 -22
-141 -2 -11 -10 -14 -27 -11 -20 4 -23 2 -18 -12 4 -10 7 -24 7 -32 0 -8 6
-14 13 -14 7 0 21 -26 32 -57 10 -32 22 -63 27 -69 4 -6 10 -28 14 -50 3 -21
7 -41 9 -42 8 -8 -28 -108 -44 -123 -39 -37 -73 -49 -144 -53 -27 -1 -52 -7
-55 -13 -14 -20 -102 -4 -102 19 0 20 -81 75 -122 83 -11 2 -29 7 -40 11 -15
4 -18 3 -13 -6 6 -9 4 -11 -5 -5 -7 4 -15 3 -19 -2 -3 -5 -23 -17 -44 -27
l-38 -18 22 -18 c16 -14 20 -26 15 -45 -5 -18 -2 -25 9 -25 8 0 15 -9 15 -20
0 -14 7 -20 22 -20 12 0 18 -3 15 -7 -4 -3 -2 -12 3 -18 7 -9 7 -21 0 -39 -10
-28 -8 -68 5 -99 16 -38 -14 -137 -42 -137 -7 0 -13 -4 -13 -8 0 -8 -46 -15
-95 -13 -78 3 -120 10 -117 21 1 6 -2 9 -8 5 -5 -3 -26 10 -46 30 -20 20 -38
34 -41 32 -2 -3 -20 11 -40 31 -24 24 -45 35 -64 35 -15 0 -30 6 -33 13 -2 6
-22 17 -43 24 -21 7 -49 19 -62 27 -16 10 -21 11 -16 2 5 -7 -2 -6 -15 4 -18
12 -27 14 -37 5 -10 -8 -18 -6 -34 8 -16 14 -22 15 -28 5 -7 -11 -13 -11 -32
0 -13 7 -35 12 -48 10 -16 -2 -21 1 -16 9 6 10 -3 11 -39 6 -27 -4 -46 -3 -46
2 0 6 -10 10 -22 10 -74 1 -118 7 -118 15 0 5 -6 7 -12 5 -14 -5 -38 15 -38
31 0 10 -27 16 -57 12 -6 -1 -13 9 -15 21 -2 13 -9 22 -16 21 -6 -2 -14 8 -18
22 -3 13 -9 24 -13 23 -29 -3 -50 4 -45 16 3 8 13 12 25 9 10 -3 19 0 19 6 0
10 -14 15 -33 12 -5 -1 -6 3 -2 9 3 5 13 10 21 10 8 0 14 4 14 10 0 5 7 7 15
4 10 -4 15 0 15 11 0 17 1 17 19 1 16 -15 25 -16 58 -7 25 7 39 7 41 1 2 -6
10 -10 18 -10 8 0 14 -4 14 -9 0 -5 23 -9 51 -7 28 1 53 -2 55 -6 3 -4 20 -8
39 -8 18 0 41 -7 49 -16 9 -8 16 -13 16 -10 0 4 16 -1 36 -9 20 -8 49 -15 64
-15 15 0 33 -7 40 -15 7 -8 23 -15 36 -15 12 0 30 -7 39 -16 8 -9 27 -17 40
-18 14 0 25 -6 25 -13 0 -7 13 -10 38 -7 45 6 85 -3 77 -16 -3 -6 -1 -10 4
-10 6 0 11 4 11 9 0 5 16 11 35 13 27 3 36 0 41 -14 6 -19 24 -25 24 -8 0 7 6
7 20 0 13 -7 26 -7 38 -1 10 5 24 6 32 1 7 -4 20 -6 28 -3 8 3 18 0 24 -8 8
-11 9 -10 4 4 -10 30 3 40 30 22 13 -8 24 -11 24 -6 0 5 3 16 6 25 4 10 1 16
-9 16 -8 0 -18 -6 -20 -12 -3 -7 -6 -1 -6 15 -1 15 4 27 10 27 8 0 8 5 -1 15
-10 13 -9 15 11 16 13 0 18 3 12 6 -7 2 -13 11 -13 18 0 23 -30 47 -45 35 -9
-8 -14 -6 -19 5 -3 9 -2 14 3 11 5 -3 9 10 8 30 -1 23 5 41 15 48 9 6 23 28
31 48 16 38 22 41 102 58 28 6 68 15 90 20 25 5 42 5 46 -2 4 -5 13 -3 22 7 9
9 21 13 27 10 5 -3 10 -3 10 2 0 4 15 8 33 9 42 1 116 30 145 56 12 12 22 17
22 12 0 -5 7 -1 15 10 7 10 18 15 24 12 17 -11 23 14 6 30 -9 9 -14 23 -11 30
3 8 -1 14 -8 14 -8 0 -17 7 -20 16 -3 9 -13 14 -21 10 -8 -3 -23 6 -34 21 -12
15 -27 23 -35 20 -10 -4 -32 10 -58 36 -24 23 -46 40 -50 39 -4 -1 -4 6 -1 14
4 12 2 15 -8 12 -8 -3 -20 2 -28 9 -7 8 -20 12 -27 9 -8 -3 -14 -2 -14 2 0 4
-19 7 -43 8 -31 0 -46 -5 -56 -19 -11 -15 -15 -16 -22 -6 -6 9 -12 10 -16 4
-10 -13 -99 -3 -96 10 2 6 -10 15 -26 20 -15 6 -26 16 -24 23 3 6 1 12 -4 12
-4 0 -8 11 -8 25 0 14 2 25 5 25 3 0 6 18 6 39 2 53 24 101 48 101 16 0 17 2
5 17 -10 11 -10 14 -1 9 24 -15 11 14 -20 44 -18 17 -54 37 -80 45 -53 15
-166 14 -176 -2 -4 -6 -24 -14 -45 -18 -20 -4 -40 -11 -43 -16 -3 -5 -13 -5
-24 1 -13 7 -19 6 -24 -6 -4 -10 -2 -13 7 -8 9 5 9 4 1 -5 -7 -8 -47 -14 -98
-16 -48 -3 -92 -8 -99 -12 -12 -7 -17 -9 -49 -11 -10 -1 -18 -9 -18 -18 0 -9
-5 -12 -12 -8 -6 4 -17 -1 -24 -11 -10 -13 -21 -16 -44 -12 -21 5 -30 3 -30
-6 0 -7 -9 -14 -20 -15 -11 -1 -29 -3 -39 -4 -11 -1 -18 -5 -15 -9 13 -22 -88
-14 -141 12 -27 13 -49 59 -28 59 5 0 8 18 6 40 -2 34 1 40 18 40 10 0 19 5
19 10 0 6 9 10 20 10 11 0 20 5 20 10 0 6 14 10 31 10 17 0 28 4 24 10 -4 6 6
10 22 10 15 0 39 6 53 13 16 9 60 13 127 12 56 -1 100 2 97 7 -3 4 5 9 18 10
40 2 62 -2 70 -15 5 -8 8 -7 8 6 0 9 8 18 18 19 9 0 24 2 32 2 8 1 14 8 12 16
-3 12 -1 12 9 3 9 -10 18 -8 39 7 14 10 39 22 56 26 16 4 38 13 49 19 11 7 37
18 58 25 27 8 37 16 33 27 -3 8 -2 12 3 9 4 -3 17 3 29 14 31 29 130 59 187
57 46 -2 56 -7 95 -47z m-1180 -410 c0 -5 -4 -10 -10 -10 -5 0 -10 5 -10 10 0
6 5 10 10 10 6 0 10 -4 10 -10z m-276 -56 c3 -8 2 -12 -4 -9 -6 3 -10 10 -10
16 0 14 7 11 14 -7z m-1844 -14 c0 -5 -2 -10 -4 -10 -3 0 -8 5 -11 10 -3 6 -1
10 4 10 6 0 11 -4 11 -10z m-760 -294 c0 5 4 3 9 -5 7 -12 13 -12 24 -3 7 7
17 9 20 5 12 -12 7 -21 -15 -27 -22 -5 -22 -6 -3 -20 19 -14 19 -15 -5 -12
-38 4 -70 24 -70 45 0 25 11 33 27 20 7 -6 13 -8 13 -3z m3204 -58 c13 -7 21
-7 26 2 5 8 10 8 14 2 3 -5 -4 -16 -17 -24 -33 -21 -57 -29 -57 -18 0 6 7 10
15 10 8 0 15 4 15 10 0 5 -23 8 -52 6 l-53 -4 28 24 c16 14 25 29 21 36 -4 7
-3 8 4 4 7 -4 12 0 13 11 0 10 6 3 13 -15 6 -19 20 -38 30 -44z m-3259 53 c3
-5 1 -12 -5 -16 -5 -3 -10 1 -10 9 0 18 6 21 15 7z m165 -10 c0 -5 -7 -12 -16
-15 -14 -5 -15 -4 -4 9 14 17 20 19 20 6z m3160 -16 c0 -8 -4 -15 -10 -15 -5
0 -10 7 -10 15 0 8 5 15 10 15 6 0 10 -7 10 -15z m-3315 -25 c3 -5 1 -10 -4
-10 -6 0 -11 5 -11 10 0 6 2 10 4 10 3 0 8 -4 11 -10z m125 0 c0 -5 -2 -10 -4
-10 -3 0 -8 5 -11 10 -3 6 -1 10 4 10 6 0 11 -4 11 -10z m3004 -14 c-3 -9 -10
-16 -15 -16 -6 0 -5 9 1 21 13 24 24 20 14 -5z m-2138 -205 c-3 -4 6 -6 19 -3
14 2 25 0 25 -4 0 -13 51 -9 79 5 21 12 23 11 18 -2 -5 -13 -2 -15 17 -7 27
10 58 8 67 -4 10 -12 72 -15 87 -4 8 7 12 7 12 0 0 -6 6 -9 14 -6 7 3 16 -2
20 -12 5 -13 9 -14 21 -4 8 6 19 9 24 6 5 -4 13 -1 17 5 4 8 9 7 15 -2 8 -12
11 -11 20 1 9 13 10 13 6 -2 -3 -9 1 -19 9 -22 8 -3 14 -12 14 -21 0 -8 5 -15
11 -15 6 0 8 -7 5 -16 -3 -8 -2 -13 3 -10 14 9 28 -43 33 -121 1 -24 5 -43 9
-43 9 0 6 -57 -3 -66 -4 -4 -5 -17 -2 -29 3 -13 1 -26 -5 -30 -8 -4 -8 -12 -1
-26 6 -10 7 -19 3 -19 -4 0 -2 -5 5 -12 9 -9 9 -15 -1 -26 -10 -12 -9 -14 8
-9 18 6 20 2 20 -51 0 -31 -4 -63 -8 -70 -5 -7 -5 -21 -2 -32 7 -21 -10 -28
-18 -7 -2 6 -3 -6 -3 -28 1 -22 -2 -53 -7 -70 -16 -55 -19 -115 -7 -115 8 0
11 -11 8 -30 -3 -16 -2 -28 0 -25 3 3 11 -7 19 -22 9 -18 10 -30 4 -36 -7 -7
-7 -15 0 -23 7 -8 2 -18 -16 -32 -14 -11 -24 -24 -23 -29 2 -5 -10 -21 -26
-36 -15 -14 -34 -43 -41 -64 -7 -21 -19 -38 -27 -38 -7 0 -21 -7 -30 -15 -34
-30 -47 -40 -56 -40 -13 0 -67 -52 -65 -62 2 -4 -4 -8 -13 -8 -9 0 -12 -5 -8
-12 11 -17 25 -87 28 -144 2 -27 8 -60 14 -71 9 -16 8 -24 -3 -33 -8 -7 -15
-21 -15 -31 0 -11 -6 -19 -12 -19 -10 0 -9 -3 1 -9 9 -6 10 -11 2 -15 -6 -4
-9 -11 -6 -16 3 -4 -3 -6 -13 -4 -9 3 -27 -4 -40 -16 -12 -11 -22 -17 -22 -13
0 4 -4 4 -8 -2 -13 -19 -52 -36 -52 -24 0 8 -5 8 -15 -1 -9 -7 -13 -15 -10
-18 3 -3 -4 -16 -16 -28 -12 -13 -19 -30 -16 -38 4 -9 0 -22 -8 -30 -13 -13
-12 -15 7 -18 17 -2 22 -9 20 -25 -2 -13 1 -23 6 -23 5 0 9 -13 10 -29 0 -16
8 -43 16 -60 9 -16 16 -37 16 -46 0 -9 4 -14 9 -11 5 3 11 0 14 -8 3 -7 24
-18 46 -24 34 -8 44 -7 57 6 12 12 20 13 33 5 12 -7 23 -8 35 -1 19 10 71 -16
62 -31 -3 -4 4 -18 15 -29 11 -12 15 -22 9 -22 -7 0 -8 -6 -2 -17 5 -10 8 -24
6 -31 -1 -7 0 -8 3 -2 10 20 21 9 28 -27 9 -48 40 -109 60 -116 8 -4 15 -12
15 -19 1 -22 37 -58 59 -58 11 0 23 -5 26 -10 4 -6 14 -8 23 -6 23 7 35 -3 48
-40 7 -20 8 -37 2 -48 -13 -23 -63 -47 -90 -42 -13 2 -29 -1 -36 -7 -7 -5 -15
-7 -19 -4 -3 4 -15 1 -26 -4 -11 -6 -34 -12 -51 -14 -17 -1 -58 -8 -90 -15
-58 -11 -60 -11 -78 12 -9 12 -18 28 -18 34 0 16 -36 55 -44 47 -3 -4 -5 2 -4
13 3 24 -58 150 -89 184 -13 14 -23 28 -23 31 0 16 -82 31 -91 16 -4 -5 -18
-11 -31 -12 -14 -2 -50 -15 -80 -29 -30 -14 -76 -32 -102 -40 l-48 -15 -15 37
c-17 40 -24 128 -12 152 64 133 89 189 89 200 0 18 54 101 85 130 14 13 25 33
25 46 0 12 6 27 14 33 11 10 24 45 31 86 5 29 27 102 35 117 6 10 10 26 10 35
0 15 2 16 10 3 10 -16 13 -10 13 33 0 10 9 29 21 42 32 35 157 291 150 308 -3
9 2 32 12 52 9 20 19 48 21 63 10 76 12 89 18 112 3 14 9 52 15 85 24 156 35
215 41 215 4 0 5 8 2 18 -2 10 9 58 26 107 16 49 27 93 24 98 -3 6 -7 26 -9
45 -2 19 -10 45 -19 58 -8 12 -12 30 -9 38 4 10 1 16 -8 16 -8 0 -22 8 -32 19
-11 12 -25 16 -41 13 -15 -2 -25 0 -25 7 0 7 -11 9 -30 6 -16 -3 -30 -2 -30 2
0 7 -106 9 -120 2 -14 -6 -78 -3 -74 3 3 4 -7 8 -23 8 -15 0 -46 7 -68 14 -22
8 -41 10 -43 5 -4 -11 -22 -2 -22 11 0 5 10 18 22 30 12 11 17 20 12 20 -6 0
-15 -5 -22 -12 -8 -8 -15 -8 -27 2 -17 14 -20 50 -4 50 5 0 8 -4 5 -8 -2 -4
-1 -14 4 -22 14 -22 41 11 28 35 -8 13 -7 16 1 11 6 -4 11 -2 11 3 0 6 -4 11
-10 11 -5 0 -10 5 -10 11 0 6 7 9 15 5 8 -3 22 2 30 11 9 9 35 18 58 20 22 2
43 5 45 8 9 9 23 5 18 -4z m1504 -9 c0 -7 5 -10 10 -7 6 4 13 -7 16 -24 4 -17
11 -31 16 -31 5 0 7 9 3 19 -10 32 12 33 23 2 8 -24 8 -30 -3 -33 -10 -2 -12
-7 -5 -18 8 -12 12 -12 18 -2 7 11 11 11 19 0 14 -19 14 -58 0 -55 -7 1 -11
-3 -10 -9 1 -7 -11 -17 -27 -24 -17 -7 -30 -17 -30 -22 0 -5 -4 -6 -10 -3 -17
10 -89 11 -83 1 4 -6 -1 -6 -13 -2 -10 5 -57 10 -104 12 -47 3 -91 7 -97 9 -7
2 -13 1 -13 -4 0 -4 -15 -7 -32 -6 -18 2 -37 0 -43 -4 -5 -3 -12 -6 -15 -7
-26 -4 -63 -33 -74 -58 -37 -85 -39 -96 -26 -139 9 -32 9 -42 0 -45 -10 -4
-10 -6 0 -12 7 -4 13 -35 14 -71 2 -44 10 -78 26 -108 18 -33 23 -58 22 -102
-1 -33 5 -89 14 -126 8 -38 18 -80 21 -96 3 -15 9 -30 14 -33 5 -3 9 -18 9
-34 0 -16 5 -32 10 -35 6 -3 10 -17 10 -31 0 -14 8 -37 18 -51 10 -16 17 -47
17 -73 0 -29 10 -65 28 -99 15 -30 27 -61 27 -69 0 -19 36 -70 76 -109 21 -19
34 -42 34 -57 0 -13 4 -26 10 -28 5 -1 11 -16 13 -33 1 -16 11 -45 20 -63 10
-18 15 -37 12 -42 -6 -10 34 -124 46 -128 5 -2 9 -10 9 -18 0 -7 9 -19 20 -26
16 -10 38 -60 43 -98 0 -3 15 -28 34 -57 18 -29 33 -57 33 -63 0 -5 4 -10 9
-10 8 0 32 -96 38 -155 2 -16 4 -39 6 -50 1 -11 -2 -20 -8 -21 -5 0 -18 -4
-28 -8 -10 -5 -24 -3 -33 5 -13 10 -17 10 -25 -2 -5 -8 -9 -9 -9 -3 0 7 -16
15 -36 19 -20 3 -48 15 -63 26 -22 16 -110 40 -145 39 -16 -1 -44 -24 -48 -40
-5 -21 -50 -70 -64 -70 -6 0 -19 -17 -29 -38 -41 -89 -70 -142 -77 -142 -4 0
-8 -7 -8 -16 0 -9 -9 -27 -20 -41 -11 -14 -20 -22 -20 -18 0 4 -6 2 -14 -4
-12 -10 -19 -8 -36 9 -12 12 -28 19 -36 16 -8 -3 -12 -1 -9 4 3 5 -7 13 -22
16 -24 6 -99 40 -113 51 -8 7 -6 83 2 83 5 0 6 10 3 23 -6 22 13 51 77 119 14
15 24 28 22 28 -5 0 6 14 34 45 6 7 12 22 12 32 0 15 2 15 9 4 8 -12 11 -8 16
15 3 16 10 37 15 46 6 11 6 19 0 23 -6 3 -10 11 -10 16 0 6 4 8 8 5 5 -3 21 2
37 10 16 8 31 11 34 7 10 -14 120 -14 128 1 4 7 17 18 28 24 13 7 15 11 6 12
-10 0 -7 9 11 28 24 26 55 118 44 130 -3 3 -1 11 5 18 7 9 7 19 0 33 -6 11
-11 29 -11 41 0 11 -14 34 -30 50 -17 17 -26 30 -20 30 7 0 6 5 -2 14 -7 8
-16 12 -20 10 -4 -2 -14 6 -22 18 -9 12 -16 19 -16 15 0 -4 -9 2 -20 13 -12
12 -25 18 -29 15 -10 -6 -25 24 -22 43 1 8 -3 20 -10 29 -8 9 -9 17 -3 21 17
11 15 239 -2 253 -10 8 -11 15 -4 24 7 8 3 11 -13 11 -12 -1 -21 4 -20 11 2 7
-4 10 -12 7 -9 -4 -15 0 -15 10 0 17 -108 102 -117 92 -4 -3 -11 -2 -17 3 -18
14 -88 22 -80 9 4 -7 2 -8 -4 -4 -7 4 -12 16 -12 27 0 14 4 18 13 13 9 -6 9
-5 0 8 -15 18 -12 104 3 101 6 -1 11 10 12 25 1 45 7 77 14 82 20 16 29 131
10 138 -11 3 -12 0 -3 -17 14 -25 0 -28 -21 -3 -11 12 -16 41 -16 104 0 48 -6
96 -11 107 -8 13 -8 28 -1 45 5 14 6 26 2 26 -4 0 1 5 11 11 9 6 15 14 12 20
-3 5 1 6 9 3 11 -4 16 0 16 11 0 9 5 13 10 10 6 -3 10 -4 10 -1 0 2 3 12 7 22
5 13 3 15 -7 9 -9 -6 -11 -4 -5 5 5 8 1 18 -10 27 -15 10 -16 16 -7 25 17 17
15 38 -3 38 -21 0 -19 12 6 34 16 13 20 25 15 47 -3 16 -2 29 2 29 4 0 7 16 8
35 0 21 10 48 22 63 12 15 26 37 32 49 5 12 18 26 28 32 21 11 114 13 108 2
-2 -3 14 -7 35 -8 22 -2 38 1 35 5 -2 4 16 7 40 7 24 0 44 -3 44 -8 0 -4 9 -3
19 3 26 13 40 13 21 -1 -12 -9 -12 -10 3 -5 45 14 67 18 67 9 0 -5 8 -9 19 -9
10 0 17 5 14 12 -3 8 18 11 71 10 56 0 76 -4 76 -14z m1470 -3 c0 -6 -4 -7
-10 -4 -5 3 -10 11 -10 16 0 6 5 7 10 4 6 -3 10 -11 10 -16z m-3222 -86 c51
-34 79 -73 52 -73 -5 0 -10 4 -10 10 0 14 -52 60 -62 54 -5 -3 -6 -14 -3 -24
11 -34 -45 -31 -74 3 -19 23 -5 37 29 30 19 -3 30 -1 30 6 0 15 6 14 38 -6z
m-118 -44 c0 -5 -4 -9 -8 -9 -5 0 -9 7 -9 15 0 8 4 12 9 9 4 -3 8 -9 8 -15z
m2181 -18 c2 2 12 -2 23 -8 15 -8 16 -14 7 -30 -13 -25 -48 -36 -55 -18 -2 7
1 18 7 25 9 10 7 11 -10 5 -14 -4 -23 -2 -23 4 0 6 7 11 15 11 8 0 15 8 15 18
0 13 2 14 9 4 4 -8 10 -12 12 -11z m3847 -124 c11 -13 6 -57 -7 -57 -3 0 -16
-3 -27 -6 -27 -7 -38 26 -17 55 16 24 36 27 51 8z m-2948 -1 c0 -3 -4 -8 -10
-11 -5 -3 -10 -1 -10 4 0 6 5 11 10 11 6 0 10 -2 10 -4z m87 -303 c0 -9 -4
-10 -14 -2 -7 6 -13 12 -13 14 0 1 6 2 13 2 8 0 14 -6 14 -14z m-7053 -394
c-6 -11 -24 -2 -24 11 0 5 7 7 15 4 8 -4 12 -10 9 -15z m152 -434 c22 -19 29
-34 30 -67 2 -44 -17 -78 -42 -78 -8 0 -25 18 -38 39 -22 34 -24 43 -14 77 17
64 21 66 64 29z m9624 -22 c0 -5 -4 -15 -10 -23 -11 -18 -25 -7 -17 15 6 15
27 21 27 8z m-4792 -200 c9 -9 17 -20 17 -25 0 -12 27 -28 37 -22 4 3 8 0 8
-5 0 -6 -7 -11 -16 -11 -9 0 -12 -5 -8 -12 4 -7 -1 -5 -11 4 -14 13 -22 14
-35 6 -10 -6 -26 -8 -36 -4 -16 7 -16 9 -4 15 8 3 15 16 14 28 -1 13 3 20 9
16 6 -4 8 0 4 10 -8 22 0 22 21 0z m-98 -17 c0 -9 8 -12 25 -8 15 2 25 0 25
-8 0 -7 -8 -9 -20 -5 -14 4 -20 2 -20 -8 0 -9 5 -17 11 -19 7 -2 5 -9 -5 -17
-14 -12 -16 -12 -10 2 4 12 -2 18 -21 23 -17 4 -24 11 -21 21 3 8 6 19 6 24 0
5 7 9 15 9 8 0 15 -6 15 -14z m-125 -6 c-3 -6 1 -13 10 -16 13 -6 14 -8 3 -15
-10 -7 -10 -9 0 -9 6 0 15 -1 20 -2 4 -1 10 11 13 28 l6 29 12 -30 c7 -16 11
-40 8 -52 -3 -15 0 -20 10 -16 7 3 13 0 13 -6 0 -6 -3 -11 -7 -11 -5 0 -16
-12 -27 -26 l-19 -26 24 7 c14 4 20 4 16 -1 -16 -18 -91 -31 -119 -21 -33 11
-34 16 -9 66 11 25 15 44 10 54 -12 20 -2 45 19 50 10 3 18 5 20 6 2 0 0 -4
-3 -9z m433 -12 c15 -15 15 -28 1 -28 -5 0 -8 4 -4 9 3 5 1 12 -4 16 -6 3 -9
-6 -8 -23 1 -19 7 -28 15 -25 6 3 12 1 12 -5 0 -5 -11 -13 -25 -16 -16 -4 -25
-13 -25 -26 0 -10 -4 -21 -10 -25 -5 -3 -7 -12 -3 -20 6 -18 -18 -20 -36 -2
-11 10 -14 10 -18 0 -9 -25 -25 -13 -19 13 5 19 4 24 -6 18 -10 -6 -9 -3 1 9
15 18 26 23 16 7 -3 -5 -1 -10 6 -10 6 0 9 8 6 20 -4 15 0 20 14 20 11 0 19
-7 19 -16 0 -8 4 -13 9 -10 14 9 0 48 -15 42 -7 -3 -18 2 -25 10 -11 13 -8 14
17 9 26 -6 27 -5 12 8 -17 13 -16 15 5 25 30 14 51 14 65 0z m-118 -58 c0 -5
-4 -10 -10 -10 -5 0 -10 5 -10 10 0 6 5 10 10 10 6 0 10 -4 10 -10z m-4520
-259 c0 -24 -18 -37 -32 -23 -8 8 -7 16 2 27 17 21 30 19 30 -4z m8900 -48 c0
-7 5 -13 10 -13 6 0 10 -4 10 -10 0 -5 -9 -10 -20 -10 -11 0 -23 -8 -27 -17
-8 -22 -39 -53 -52 -53 -10 0 -18 34 -24 90 -2 21 3 26 28 28 17 2 34 11 39
20 8 14 10 13 22 -3 8 -10 14 -25 14 -32z m-8905 -123 c16 0 26 -45 12 -59
-10 -10 -60 9 -72 29 -8 14 17 40 33 35 8 -3 19 -5 27 -5z m107 -277 c21 -19
24 -43 4 -43 -8 0 -20 -2 -28 -5 -17 -7 -40 29 -32 50 8 20 33 19 56 -2z
m8273 -553 c-28 -12 -37 -12 -30 0 3 6 16 10 28 9 21 0 21 -1 2 -9z m-168
-102 c-3 -8 -6 -5 -6 6 -1 11 2 17 5 13 3 -3 4 -12 1 -19z m65 -53 c0 -5 -5
-11 -11 -13 -6 -2 -11 4 -11 13 0 9 5 15 11 13 6 -2 11 -8 11 -13z m-7651 -16
c44 -31 40 -65 -11 -80 -36 -11 -41 -10 -64 12 -15 14 -26 35 -26 51 0 23 5
27 33 31 17 2 34 5 35 5 2 1 17 -7 33 -19z m7619 -29 c0 -5 7 -10 15 -10 8 0
15 -5 15 -10 0 -6 -7 -13 -15 -16 -8 -4 -15 -15 -15 -25 0 -10 -6 -19 -13 -19
-8 0 -11 14 -9 45 2 25 8 45 13 45 5 0 9 -4 9 -10z m-140 -30 c0 -5 -7 -10
-16 -10 -8 0 -12 5 -9 10 3 6 10 10 16 10 5 0 9 -4 9 -10z m100 -33 c0 -2 -9
-14 -20 -27 -14 -16 -17 -27 -10 -35 6 -7 7 -26 4 -44 -5 -25 -11 -31 -33 -31
-33 0 -59 51 -35 71 11 9 12 15 3 26 -14 16 -14 17 36 30 49 13 55 14 55 10z
m-7474 -21 c16 -17 18 -26 4 -26 -5 0 -14 9 -20 20 -12 23 -5 26 16 6z m7279
-33 c-1 -21 -3 -46 -4 -56 -1 -10 -7 -17 -13 -14 -7 2 -12 12 -10 21 2 10 -4
23 -14 30 -19 14 -12 36 12 36 8 0 14 5 14 10 0 6 4 10 9 10 6 0 8 -17 6 -37z
m-7435 -14 c0 -6 -4 -7 -10 -4 -5 3 -10 11 -10 16 0 6 5 7 10 4 6 -3 10 -11
10 -16z m240 4 c0 -5 -4 -15 -10 -23 -11 -18 -25 -7 -17 15 6 15 27 21 27 8z
m7088 -69 c-13 -14 -24 -20 -26 -14 -7 20 7 40 28 40 19 0 19 -1 -2 -26z m202
6 c0 -5 -4 -10 -10 -10 -5 0 -10 5 -10 10 0 6 5 10 10 10 6 0 10 -4 10 -10z
m-68 -42 c-7 -7 -12 -8 -12 -2 0 14 12 26 19 19 2 -3 -1 -11 -7 -17z m88 2 c0
-18 -34 -48 -62 -55 -23 -6 -37 -26 -42 -59 -2 -16 -23 -17 -39 -2 -13 14 -15
13 -20 -4 -6 -25 -37 -27 -36 -2 0 9 8 31 18 47 13 22 25 30 47 30 16 0 33 6
37 13 4 6 14 12 21 12 8 0 19 7 26 15 14 17 50 20 50 5z m0 -70 c0 -5 -4 -10
-10 -10 -5 0 -10 5 -10 10 0 6 5 10 10 10 6 0 10 -4 10 -10z m-224 -107 c-3
-8 -6 -17 -6 -19 0 -2 -4 -4 -9 -4 -11 0 -23 29 -16 40 9 15 37 -1 31 -17z
m-6824 -37 c12 -17 9 -26 -6 -26 -7 0 -19 -6 -25 -14 -9 -11 -6 -12 16 -8 15
3 33 11 41 18 10 11 21 7 57 -18 25 -18 45 -37 45 -44 0 -7 14 -21 30 -31 24
-14 29 -23 26 -43 -2 -14 -5 -28 -5 -32 -1 -5 -6 -8 -12 -8 -6 0 -9 6 -6 13 3
8 -8 12 -37 12 -53 0 -125 36 -151 75 -11 16 -28 30 -39 30 -12 0 -16 5 -13
14 4 9 -2 17 -14 21 -27 9 -15 23 16 17 20 -3 25 0 25 15 0 11 3 22 6 26 8 7
37 -3 46 -17z m6752 -1 c-25 -19 -44 -19 -44 -1 0 8 12 16 28 18 36 5 40 1 16
-17z m86 6 c0 -12 -20 -25 -27 -18 -7 7 6 27 18 27 5 0 9 -4 9 -9z m-6905 -11
c3 -5 1 -10 -4 -10 -6 0 -11 5 -11 10 0 6 2 10 4 10 3 0 8 -4 11 -10z m6859
-15 c4 -11 -3 -19 -21 -26 -34 -12 -41 -4 -18 21 22 24 31 25 39 5z m-134 -17
c0 -16 -15 -39 -26 -41 -5 -1 -9 -8 -11 -15 -1 -8 4 -11 13 -8 8 3 14 1 14 -5
0 -5 -12 -14 -26 -19 -15 -6 -38 -19 -52 -30 -28 -23 -55 -26 -70 -7 -10 13
-1 52 14 52 19 1 54 26 54 39 0 18 40 45 68 45 12 1 22 -5 22 -11z"/>
<path d="M4270 5450 c-9 -6 -10 -10 -3 -10 6 0 15 5 18 10 8 12 4 12 -15 0z"/>
<path d="M5263 7125 c-18 -19 -16 -30 2 -15 8 6 20 8 27 4 10 -6 9 -3 -1 9
-16 20 -13 20 -28 2z"/>
<path d="M5030 7020 c-8 -5 -12 -11 -9 -14 2 -3 11 -1 19 4 8 5 12 11 9 14 -2
3 -11 1 -19 -4z"/>
<path d="M3240 5745 c0 -8 2 -15 4 -15 2 0 6 7 10 15 3 8 1 15 -4 15 -6 0 -10
-7 -10 -15z"/>
<path d="M2800 5620 c0 -5 5 -10 11 -10 5 0 7 5 4 10 -3 6 -8 10 -11 10 -2 0
-4 -4 -4 -10z"/>
<path d="M2730 5580 c0 -5 7 -10 16 -10 8 0 12 5 9 10 -3 6 -10 10 -16 10 -5
0 -9 -4 -9 -10z"/>
<path d="M2840 5390 c0 -5 7 -7 15 -4 8 4 15 8 15 10 0 2 -7 4 -15 4 -8 0 -15
-4 -15 -10z"/>
<path d="M2828 4613 c7 -3 16 -2 19 1 4 3 -2 6 -13 5 -11 0 -14 -3 -6 -6z"/>
<path d="M7401 4814 c0 -11 3 -14 6 -6 3 7 2 16 -1 19 -3 4 -6 -2 -5 -13z"/>
<path d="M7425 4740 c-3 -5 -1 -10 4 -10 6 0 11 5 11 10 0 6 -2 10 -4 10 -3 0
-8 -4 -11 -10z"/>
<path d="M6390 4629 c0 -5 5 -7 10 -4 6 3 10 8 10 11 0 2 -4 4 -10 4 -5 0 -10
-5 -10 -11z"/>
<path d="M6630 5109 c0 -5 5 -7 10 -4 6 3 10 8 10 11 0 2 -4 4 -10 4 -5 0 -10
-5 -10 -11z"/>
<path d="M4955 3870 c3 -5 8 -10 11 -10 2 0 4 5 4 10 0 6 -5 10 -11 10 -5 0
-7 -4 -4 -10z"/>
<path d="M2690 9680 c0 -5 5 -10 10 -10 6 0 10 5 10 10 0 6 -4 10 -10 10 -5 0
-10 -4 -10 -10z"/>
<path d="M564 7592 c-24 -16 -33 -47 -18 -67 12 -16 14 -17 14 -2 0 9 6 17 14
17 20 0 29 16 21 40 -7 21 -14 24 -31 12z"/>
<path d="M1330 1435 c0 -3 25 -31 55 -62 55 -54 56 -55 74 -37 17 17 18 21 4
44 -26 42 -53 60 -94 60 -21 0 -39 -2 -39 -5z m130 -75 c0 -5 -4 -10 -10 -10
-5 0 -10 5 -10 10 0 6 5 10 10 10 6 0 10 -4 10 -10z"/>
<path d="M1470 1310 c-12 -8 -12 -10 3 -16 21 -8 35 2 21 16 -5 5 -15 6 -24 0z"/>
</g>
</svg>
